# xmcd
# 
# Track frame offsets:
#     150
#     9727
#     12477
#     16612
#     42105
#     62577
#     88130
#     97447
#     120320
#     148970
#     152240
#     175395
#     182505
#     186372
# 
# Disc length: 2498
# 
# Revision: 2
# Processed by: cddbd v1.5.2PL0 Copyright (c) Steve Scherf et al.
# Submitted via: BonkEnc v1.0
# 
DISCID=bc09c00e
DTITLE=あがた森魚 - 日本少年2000系 Disc 1
DYEAR=1999
DGENRE=
TTITLE0=河童
TTITLE1=碧緑サルガッソウ(白昼篇)
TTITLE2=ラム酒の大楽隊
TTITLE3=パタゴニア・パンタンゴ1999
TTITLE4=港のロキシー
TTITLE5=1970ハネディアン
TTITLE6=珊瑚海底・玻璃の城
TTITLE7=ガルトネルのブナの森
TTITLE8=びわの実パレード
TTITLE9=越南の大楽隊
TTITLE10=シャドウレス・ア・ポカリプス
TTITLE11=珊瑚海底<たそがれるMIX>玻璃の城
TTITLE12=碧緑サルガッソウ(黄昏篇)
TTITLE13=サザンプトン安着
EXTD=
EXTT0=
EXTT1=
EXTT2=
EXTT3=
EXTT4=
EXTT5=
EXTT6=
EXTT7=
EXTT8=
EXTT9=
EXTT10=
EXTT11=
EXTT12=
EXTT13=
PLAYORDER=
